<svg width="250" height="250" xmlns="http://www.w3.org/2000/svg">
 <defs>
  <radialGradient gradientUnits="userSpaceOnUse" gradientTransform="matrix(1 0 0 -1 -50 111)" r="507.5908" cy="143.2378" cx="118.0562" id="left_2_">
   <stop stop-color="#004473" offset="0"/>
   <stop stop-color="#00345F" offset="1"/>
  </radialGradient>
  <linearGradient y2="4.287589" x2="0.5" y1="-0.028079" x1="0.5" id="top_1_">
   <stop stop-color="#002E3B" offset="0"/>
   <stop stop-color="#002639" offset="1"/>
  </linearGradient>
  <radialGradient x2="1" x1="1" gradientUnits="userSpaceOnUse" gradientTransform="matrix(1 0 0 -1 -50 111)" r="507.5908" cy="143.2378" cx="118.0562" id="svg_16">
   <stop stop-color="#004473" offset="0"/>
   <stop stop-color="#00345F" offset="1"/>
  </radialGradient>
  <radialGradient x2="1" x1="1" gradientUnits="userSpaceOnUse" gradientTransform="matrix(1 0 0 -1 -50 111)" r="507.5908" cy="143.2378" cx="118.0562" id="svg_17">
   <stop stop-color="#004473" offset="0"/>
   <stop stop-color="#00345F" offset="1"/>
  </radialGradient>
 </defs>
 <g>
  <title>background</title>
  <rect fill="none" id="canvas_background" height="402" width="582" y="-1" x="-1"/>
 </g>
 <g>
  <title>Layer 1</title>
  <polygon stroke="#ffff00" points="101.00271606445312,105.90522766113281 101.00271606445312,105.894287109375 120.43014526367188,87.85688018798828 139.8590087890625,105.894287109375 155.843994140625,86.87903594970703 120.41720581054688,53.98500061035156 85,86.86900329589844 85,86.89818572998047 100.98929595947266,105.91799926757812 " fill="#56aaff" id="svg_23"/>
  <polygon stroke="#ffff00" points="101.00271606445312,117.90522766113281 101.00271606445312,117.894287109375 120.43014526367188,99.85688018798828 139.8590087890625,117.894287109375 155.843994140625,98.87903594970703 120.41720581054688,65.98500061035156 85,98.86900329589844 85,98.89818572998047 100.98929595947266,117.91799926757812 " fill="#ff7f00" id="svg_22"/>
  <polygon stroke="url(#top_1_)" points="102.00271889760188,131.9052276611328 102.00271889760188,131.894287109375 121.43014742119703,113.85688018798828 140.85900355612102,131.894287109375 156.843994140625,112.87903594970703 121.41720869844721,79.98500061035156 85.99999727425165,112.86900329589844 85.99999727425165,112.89818572998047 101.9892972282687,131.91799926757812 " fill="#ffff00" id="top"/>
  <polygon stroke="url(#left_2_)" points="227,184.91200256347656 227,184.91200256347656 227,147.74600219726562 112.49800109863281,90.7229995727539 112.49800109863281,31.959999084472656 79.09600067138672,11.088001251220703 79.09600067138672,111.59700012207031 " fill="url(#left_2_)" id="left_1_"/>
  <polygon stroke="url(#svg_17)" points="30,186.91200256347656 30,186.91200256347656 30,149.74600219726562 129.16737365722656,92.7229995727539 129.16737365722656,33.959999084472656 158.09600830078125,13.088001251220703 158.09600830078125,113.59700012207031 " fill="url(#svg_16)" id="svg_15"/>
  <rect stroke="#ffffff" transform="rotate(-33.92440414428711 173.47181701660156,161.26908874511716) " id="svg_26" height="98.896197" width="107.449924" y="111.820987" x="119.746869" stroke-width="null" fill="#ffffff"/>
  <rect stroke="#ffffff" transform="rotate(-61.25983428955078 74.47183227539062,169.26907348632812) " id="svg_27" height="98.896197" width="107.449924" y="119.820987" x="20.746869" stroke-width="null" fill="#ffffff"/>
 </g>
</svg>